<svg xmlns="http://www.w3.org/2000/svg" xmlns:xlink="http://www.w3.org/1999/xlink" version="1.1" x="0px" y="0px" viewBox="0 0 66 82.5" style="enable-background:new 0 0 66 66;" xml:space="preserve"><path d="M59.2,28.14h-1.42v-5.48c0-2.71-2.2-4.91-4.91-4.91c-0.89,0-1.7,0.25-2.42,0.67v-0.91c0-2.7-2.2-4.91-4.91-4.91  s-4.91,2.2-4.91,4.91v10.63H25.84V17.51c0-2.7-2.2-4.91-4.91-4.91s-4.91,2.2-4.91,4.91v0.91c-0.72-0.41-1.54-0.67-2.42-0.67  c-2.7,0-4.91,2.2-4.91,4.91v5.48H6.8c-1.28,0-2.5,0.5-3.44,1.42C2.45,30.48,1.95,31.7,1.95,33c0,2.68,2.18,4.86,4.86,4.86h1.9v5.48  c0,2.71,2.2,4.91,4.91,4.91c0.86,0,1.68-0.24,2.42-0.66v0.91c0,2.7,2.2,4.91,4.91,4.91c1.3,0,2.53-0.51,3.48-1.44  c0.92-0.94,1.42-2.17,1.42-3.47V37.86h14.79v10.63c0,1.3,0.51,2.53,1.44,3.48c0.94,0.92,2.17,1.42,3.47,1.42  c2.7,0,4.91-2.2,4.91-4.91v-0.91c0.74,0.42,1.56,0.66,2.42,0.66c2.7,0,4.91-2.2,4.91-4.91v-5.48h1.42c1.28,0,2.5-0.5,3.44-1.42  c0.92-0.92,1.42-2.14,1.42-3.44C64.05,30.32,61.87,28.14,59.2,28.14z M6.8,35.37c-1.31,0-2.37-1.06-2.37-2.37  c0-0.64,0.25-1.23,0.68-1.67c0.46-0.45,1.06-0.7,1.69-0.7h1.9v4.75H6.8z M15.34,45.04c-0.47,0.46-1.08,0.71-1.73,0.71  c-1.34,0-2.42-1.09-2.42-2.42v-6.72v-7.23v-6.72c0-1.34,1.09-2.42,2.42-2.42s2.42,1.09,2.42,2.42v20.67  C16.03,43.98,15.78,44.59,15.34,45.04z M23.36,48.49c0,0.64-0.25,1.26-0.7,1.71c-0.47,0.46-1.08,0.71-1.73,0.71  c-1.34,0-2.42-1.09-2.42-2.42v-5.16V22.67v-5.16c0-1.34,1.09-2.42,2.42-2.42c1.34,0,2.42,1.09,2.42,2.42v11.87v7.23V48.49z   M25.84,35.37v-4.75h14.79v4.75H25.84z M47.97,48.49c0,1.34-1.09,2.42-2.42,2.42c-0.64,0-1.26-0.25-1.71-0.7  c-0.46-0.47-0.71-1.08-0.71-1.73V36.61v-7.23V17.51c0-1.34,1.09-2.42,2.42-2.42s2.42,1.09,2.42,2.42v5.16v20.67V48.49z M55.29,43.33  c0,1.34-1.09,2.42-2.42,2.42c-0.65,0-1.26-0.25-1.71-0.7c-0.46-0.47-0.71-1.08-0.71-1.73V22.67c0-1.34,1.09-2.42,2.42-2.42  c1.34,0,2.42,1.09,2.42,2.42v6.72v7.23V43.33z M60.88,34.67c-0.46,0.45-1.06,0.7-1.69,0.7h-1.42v-4.75h1.42  c1.31,0,2.37,1.06,2.37,2.37C61.57,33.64,61.32,34.23,60.88,34.67z"/><text x="0" y="81" fill="#000000" font-size="5px" font-weight="bold" font-family="'Helvetica Neue', Helvetica, Arial-Unicode, Arial, Sans-serif">Created by Candy Design</text><text x="0" y="86" fill="#000000" font-size="5px" font-weight="bold" font-family="'Helvetica Neue', Helvetica, Arial-Unicode, Arial, Sans-serif">from the Noun Project</text></svg>